P3  31  21  255
0
0
0
0
0
0
0
0
0
0
0
0
0
0
0
0
0
0
0
0
0
0
0
0
0
0
0
0
0
0
0
0
255
0
0
0
0
0
0
0
0
0
0
0
0
0
0
0
0
0
0
0
0
0
0
0
0
0
0
0
0
0
0
0
0
0
0
0
0
0
0
0
0
0
0
0
0
0
0
0
0
0
0
0
0
0
0
0
0
0
0
0
0
0
0
0
0
0
0
0
0
0
0
0
0
0
0
0
0
0
0
0
0
0
0
0
0
0
0
0
16
2
237
1
7
247
0
8
247
0
0
0
0
0
0
0
0
0
0
0
0
0
0
0
0
0
0
0
0
0
0
0
0
0
0
0
0
0
0
0
0
0
0
0
0
0
0
0
0
0
0
0
0
0
0
0
0
0
0
0
0
0
0
0
0
0
0
0
0
0
0
0
0
0
0
0
0
0
0
0
0
0
0
0
0
0
0
0
0
0
0
0
0
25
6
224
9
11
235
1
19
235
0
20
235
0
0
0
0
0
0
0
0
0
0
0
0
0
0
0
0
0
0
0
0
0
0
0
0
0
0
0
0
0
0
0
0
0
0
0
0
0
0
0
0
0
0
0
0
0
0
0
0
0
0
0
0
0
0
0
0
0
0
0
0
0
0
0
0
0
0
0
0
0
0
0
0
0
0
0
0
0
0
42
1
212
33
10
212
18
15
222
10
24
222
1
32
222
0
33
222
0
0
0
0
0
0
0
0
0
0
0
0
0
0
0
0
0
0
0
0
0
0
0
0
0
0
0
0
0
0
0
0
0
0
0
0
0
0
0
0
0
0
0
0
0
0
0
0
0
0
0
0
0
0
0
0
0
0
0
0
0
0
0
0
0
0
0
0
0
0
0
0
0
0
0
50
6
199
40
13
201
27
19
209
18
28
209
10
36
209
1
45
209
0
46
209
0
0
0
0
0
0
0
0
0
0
0
0
0
0
0
0
0
0
0
0
0
0
0
0
0
0
0
0
0
0
0
0
0
0
0
0
0
0
0
0
0
0
0
0
0
0
0
0
0
0
0
0
0
0
0
0
0
0
0
0
0
0
0
0
0
0
0
0
0
67
1
186
57
9
189
50
19
186
35
23
196
26
32
196
18
40
196
9
49
196
1
57
196
0
59
196
0
0
0
0
0
0
0
0
0
0
0
0
0
0
0
0
0
0
0
0
0
0
0
0
0
0
0
0
0
0
0
0
0
0
0
0
0
0
0
0
0
0
0
0
0
0
0
0
0
0
0
0
0
0
0
0
0
0
0
0
0
0
0
0
0
0
76
6
173
66
13
176
59
23
173
44
28
184
35
36
184
26
45
184
19
53
184
10
61
184
1
70
184
0
71
184
0
0
0
0
0
0
0
0
0
0
0
0
0
0
0
0
0
0
0
0
0
0
0
0
0
0
0
0
0
0
0
0
0
0
0
0
0
0
0
0
0
0
0
0
0
0
0
0
0
0
0
0
0
0
0
0
0
0
0
0
93
1
161
83
9
163
72
17
166
61
24
171
52
32
171
44
40
171
35
49
171
27
57
171
19
66
171
10
74
171
2
82
171
0
84
171
0
0
0
0
0
0
0
0
0
0
0
0
0
0
0
0
0
0
0
0
0
0
0
0
0
0
0
0
0
0
0
0
0
0
0
0
0
0
0
0
0
0
0
0
0
0
0
0
0
0
0
0
0
0
0
0
0
102
5
148
91
14
150
83
22
150
71
29
156
61
36
158
52
45
158
44
53
158
35
62
158
27
70
158
18
78
158
10
87
158
1
96
158
0
97
158
0
0
0
0
0
0
0
0
0
0
0
0
0
0
0
0
0
0
0
0
0
0
0
0
0
0
0
0
0
0
0
0
0
0
0
0
0
0
0
0
0
0
0
0
0
0
0
0
0
0
0
119
1
135
110
10
135
100
18
138
90
25
140
78
32
145
69
41
145
61
48
145
53
57
145
44
66
145
35
75
145
27
82
145
19
91
145
10
100
145
1
109
145
0
110
145
0
0
0
0
0
0
0
0
0
0
0
0
0
0
0
0
0
0
0
0
0
0
0
0
0
0
0
0
0
0
0
0
0
0
0
0
0
0
0
0
0
0
0
0
0
0
0
0
127
5
122
117
13
125
110
23
122
96
29
130
91
39
125
78
44
133
70
53
133
61
61
133
53
70
133
44
78
133
35
87
133
27
95
133
18
104
133
10
113
133
1
121
133
0
122
133
0
0
0
0
0
0
0
0
0
0
0
0
0
0
0
0
0
0
0
0
0
0
0
0
0
0
0
0
0
0
0
0
0
0
0
0
0
0
0
0
0
0
144
1
110
135
10
110
123
17
115
115
25
115
105
33
117
95
41
120
86
49
120
78
57
120
69
66
120
61
74
120
53
82
120
45
91
120
35
100
120
27
108
120
19
116
120
9
126
120
1
134
120
0
135
120
0
0
0
0
0
0
0
0
0
0
0
0
0
0
0
0
0
0
0
0
0
0
0
0
0
0
0
0
0
0
0
0
0
0
0
0
0
0
0
151
5
99
144
14
97
134
22
99
122
29
105
117
39
99
104
44
107
95
53
107
87
61
107
78
70
107
70
78
107
61
87
107
53
95
107
44
104
107
35
112
107
27
121
107
19
129
107
10
138
107
1
146
107
0
148
107
0
0
0
0
0
0
0
0
0
0
0
0
0
0
0
0
0
0
0
0
0
0
0
0
0
0
0
0
0
0
0
0
0
168
0
87
157
8
89
149
17
89
139
24
92
129
32
94
120
40
94
112
48
94
104
56
94
95
66
94
87
74
94
79
82
94
69
92
94
61
100
94
53
108
94
43
117
94
35
125
94
27
133
94
19
141
94
10
151
94
2
159
94
0
161
94
0
0
0
0
0
0
0
0
0
0
0
0
0
0
0
0
0
0
0
0
0
0
0
0
0
0
0
0
0
0
178
6
71
166
12
76
159
22
74
152
31
71
137
36
82
130
46
79
127
57
71
113
61
82
104
69
82
95
78
82
87
87
82
78
95
82
69
104
82
61
113
82
52
121
82
43
130
82
36
137
82
28
146
82
19
154
82
10
163
82
2
172
82
0
173
82
0
0
0
0
0
0
0
0
0
0
0
0
0
0
0
0
0
0
0
0
0
0
0
0
194
0
61
187
10
59
176
17
61
164
25
66
161
35
59
147
42
66
138
48
69
128
58
69
121
65
69
112
74
69
104
82
69
95
91
69
87
99
69
78
108
69
69
117
69
61
125
69
52
134
69
45
141
69
35
151
69
28
158
69
19
168
69
11
175
69
2
184
69
0
186
69
0
0
0
0
0
0
0
0
0
0
0
0
0
0
0
0
0
0
0
0
0
200
4
51
192
12
51
181
20
54
178
31
46
169
40
46
159
48
48
147
54
54
137
62
56
129
70
56
121
78
56
111
88
56
103
95
56
95
103
56
88
111
56
78
121
56
70
129
56
62
137
56
54
145
56
44
155
56
36
163
56
28
171
56
18
181
56
10
189
56
2
197
56
0
199
56
0
0
0
0
0
0
0
0
0
0
0
0
0
0
0
219
0
36
211
9
36
202
18
36
193
26
36
186
35
33
171
40
43
163
49
43
155
57
43
146
66
43
138
74
43
129
83
43
121
91
43
112
99
43
104
108
43
95
116
43
87
125
43
78
133
43
70
142
43
61
150
43
53
159
43
44
167
43
36
176
43
28
184
43
19
193
43
11
201
43
2
210
43
0
212
43
0
0
0
0
0
0
0
0
0
0
0
0
227
5
23
221
14
20
209
21
25
202
30
23
195
40
20
180
45
31
174
55
25
164
61
31
155
70
31
146
79
31
137
88
31
130
94
31
121
103
31
112
112
31
103
121
31
96
128
31
88
137
31
79
146
31
70
155
31
61
164
31
54
171
31
45
180
31
36
188
31
27
197
31
18
206
31
11
213
31
2
222
31
0
224
31
0
0
0
0
0
0
245
0
10
237
10
8
225
17
13
213
24
18
208
34
13
197
40
18
191
51
13
180
57
18
173
67
15
164
74
18
154
83
18
147
90
18
138
100
18
130
107
18
121
116
18
111
126
18
104
133
18
95
142
18
88
149
18
78
159
18
71
166
18
62
175
18
52
185
18
45
192
18
36
202
18
28
209
18
19
218
18
9
228
18
2
235
18
0
237
18
0
0
0
247
2
5
240
10
5
232
20
3
222
27
5
215
35
5
205
45
5
197
52
5
190
60
5
180
70
5
172
77
5
162
87
5
155
95
5
147
102
5
137
112
5
130
120
5
120
130
5
112
137
5
105
145
5
95
155
5
87
162
5
77
172
5
70
180
5
62
187
5
52
197
5
45
205
5
35
215
5
27
222
5
20
230
5
10
240
5
2
247
5
0
250
5
